{
	"asset":{
		"generator":"Khronos glTF Blender I/O v5.1.18",
		"version":"2.0"
	},
	"scene":0,
	"scenes":[
		{
			"name":"Scene",
			"nodes":[
				0,
				1,
				2,
				3,
				4,
				5,
				6,
				7
			]
		}
	],
	"nodes":[
		{
			"mesh":0,
			"name":"Strap",
			"translation":[
				1.130260944366455,
				0,
				0
			]
		},
		{
			"mesh":1,
			"name":"M36",
			"translation":[
				1.130260944366455,
				0,
				0
			]
		},
		{
			"mesh":2,
			"name":"StrapHolder",
			"scale":[
				0.05217766761779785,
				0.05217766761779785,
				0.05217766761779785
			],
			"translation":[
				1.130260944366455,
				0,
				0
			]
		},
		{
			"mesh":3,
			"name":"Buttons",
			"translation":[
				1.130260944366455,
				0,
				0
			]
		},
		{
			"mesh":4,
			"name":"Buttonsarm",
			"translation":[
				-1.1254098415374756,
				0,
				0
			]
		},
		{
			"mesh":5,
			"name":"M36arm",
			"translation":[
				-1.1254098415374756,
				0,
				0
			]
		},
		{
			"mesh":6,
			"name":"Straparm",
			"translation":[
				-1.1254098415374756,
				0,
				0
			]
		},
		{
			"mesh":7,
			"name":"StrapHolderarm",
			"scale":[
				0.05217766761779785,
				0.05217766761779785,
				0.05217766761779785
			],
			"translation":[
				-1.1254098415374756,
				0,
				0
			]
		}
	],
	"materials":[
		{
			"doubleSided":true,
			"name":"Material",
			"pbrMetallicRoughness":{
				"baseColorFactor":[
					0.07834978401660919,
					0.017965510487556458,
					0.0014429965522140265,
					1
				],
				"metallicFactor":0,
				"roughnessFactor":0.5
			}
		},
		{
			"doubleSided":true,
			"name":"Helmet",
			"pbrMetallicRoughness":{
				"baseColorFactor":[
					0.024746153503656387,
					0.024746153503656387,
					0.024746153503656387,
					1
				],
				"metallicFactor":0,
				"roughnessFactor":0.5
			}
		},
		{
			"doubleSided":true,
			"name":"Strap",
			"pbrMetallicRoughness":{
				"baseColorFactor":[
					0,
					0,
					0,
					1
				],
				"metallicFactor":0,
				"roughnessFactor":0.5
			}
		}
	],
	"meshes":[
		{
			"name":"NurbsPath.004",
			"primitives":[
				{
					"attributes":{
						"POSITION":0,
						"NORMAL":1,
						"TEXCOORD_0":2
					},
					"indices":3,
					"material":0
				}
			]
		},
		{
			"name":"Roundcube.009",
			"primitives":[
				{
					"attributes":{
						"POSITION":4,
						"NORMAL":5
					},
					"indices":6,
					"material":1
				}
			]
		},
		{
			"name":"Cube",
			"primitives":[
				{
					"attributes":{
						"POSITION":7,
						"NORMAL":8,
						"TEXCOORD_0":9
					},
					"indices":10,
					"material":2
				}
			]
		},
		{
			"name":"Cylinder.003",
			"primitives":[
				{
					"attributes":{
						"POSITION":11,
						"NORMAL":12,
						"TEXCOORD_0":13
					},
					"indices":14,
					"material":2
				}
			]
		},
		{
			"name":"Cylinder.004",
			"primitives":[
				{
					"attributes":{
						"POSITION":15,
						"NORMAL":16,
						"TEXCOORD_0":17
					},
					"indices":14,
					"material":2
				}
			]
		},
		{
			"name":"Roundcube.007",
			"primitives":[
				{
					"attributes":{
						"POSITION":18,
						"NORMAL":19
					},
					"indices":20,
					"material":1
				}
			]
		},
		{
			"name":"NurbsPath.001",
			"primitives":[
				{
					"attributes":{
						"POSITION":21,
						"NORMAL":22,
						"TEXCOORD_0":23
					},
					"indices":3,
					"material":0
				}
			]
		},
		{
			"name":"Cube.002",
			"primitives":[
				{
					"attributes":{
						"POSITION":24,
						"NORMAL":25,
						"TEXCOORD_0":26
					},
					"indices":10,
					"material":2
				}
			]
		}
	],
	"accessors":[
		{
			"bufferView":0,
			"componentType":5126,
			"count":3114,
			"max":[
				0.7122945785522461,
				-0.03646259382367134,
				0.5606444478034973
			],
			"min":[
				-0.7149486541748047,
				-0.6760527491569519,
				-0.029496144503355026
			],
			"type":"VEC3"
		},
		{
			"bufferView":1,
			"componentType":5126,
			"count":3114,
			"type":"VEC3"
		},
		{
			"bufferView":2,
			"componentType":5126,
			"count":3114,
			"type":"VEC2"
		},
		{
			"bufferView":3,
			"componentType":5123,
			"count":13140,
			"type":"SCALAR"
		},
		{
			"bufferView":4,
			"componentType":5126,
			"count":5690,
			"max":[
				0.8449336290359497,
				0.8074909448623657,
				0.8429165482521057
			],
			"min":[
				-0.8449336290359497,
				-0.31082671880722046,
				-1.0380299091339111
			],
			"type":"VEC3"
		},
		{
			"bufferView":5,
			"componentType":5126,
			"count":5690,
			"type":"VEC3"
		},
		{
			"bufferView":6,
			"componentType":5123,
			"count":29016,
			"type":"SCALAR"
		},
		{
			"bufferView":7,
			"componentType":5126,
			"count":508,
			"max":[
				13.121864318847656,
				0.7156858444213867,
				0.7296500205993652
			],
			"min":[
				-13.121864318847656,
				-1.2576606273651123,
				-0.7206854820251465
			],
			"type":"VEC3"
		},
		{
			"bufferView":8,
			"componentType":5126,
			"count":508,
			"type":"VEC3"
		},
		{
			"bufferView":9,
			"componentType":5126,
			"count":508,
			"type":"VEC2"
		},
		{
			"bufferView":10,
			"componentType":5123,
			"count":1008,
			"type":"SCALAR"
		},
		{
			"bufferView":11,
			"componentType":5126,
			"count":1256,
			"max":[
				0.702921986579895,
				0.016252130270004272,
				0.01590909995138645
			],
			"min":[
				-0.702921986579895,
				-0.021287590265274048,
				-0.01782863773405552
			],
			"type":"VEC3"
		},
		{
			"bufferView":12,
			"componentType":5126,
			"count":1256,
			"type":"VEC3"
		},
		{
			"bufferView":13,
			"componentType":5126,
			"count":1256,
			"type":"VEC2"
		},
		{
			"bufferView":14,
			"componentType":5123,
			"count":4404,
			"type":"SCALAR"
		},
		{
			"bufferView":15,
			"componentType":5126,
			"count":1256,
			"max":[
				0.702921986579895,
				0.016252130270004272,
				0.01590909995138645
			],
			"min":[
				-0.702921986579895,
				-0.021287590265274048,
				-0.01782863773405552
			],
			"type":"VEC3"
		},
		{
			"bufferView":16,
			"componentType":5126,
			"count":1256,
			"type":"VEC3"
		},
		{
			"bufferView":17,
			"componentType":5126,
			"count":1256,
			"type":"VEC2"
		},
		{
			"bufferView":18,
			"componentType":5126,
			"count":6998,
			"max":[
				0.8445451855659485,
				0.8074909448623657,
				0.8426963686943054
			],
			"min":[
				-0.8445451855659485,
				-0.31082671880722046,
				-1.037653923034668
			],
			"type":"VEC3"
		},
		{
			"bufferView":19,
			"componentType":5126,
			"count":6998,
			"type":"VEC3"
		},
		{
			"bufferView":20,
			"componentType":5123,
			"count":37380,
			"type":"SCALAR"
		},
		{
			"bufferView":21,
			"componentType":5126,
			"count":3114,
			"max":[
				0.7122945785522461,
				-0.03646259382367134,
				0.5606444478034973
			],
			"min":[
				-0.7149486541748047,
				-0.6760527491569519,
				-0.029496144503355026
			],
			"type":"VEC3"
		},
		{
			"bufferView":22,
			"componentType":5126,
			"count":3114,
			"type":"VEC3"
		},
		{
			"bufferView":23,
			"componentType":5126,
			"count":3114,
			"type":"VEC2"
		},
		{
			"bufferView":24,
			"componentType":5126,
			"count":508,
			"max":[
				13.121864318847656,
				0.7156858444213867,
				0.7296500205993652
			],
			"min":[
				-13.121864318847656,
				-1.2576606273651123,
				-0.7206854820251465
			],
			"type":"VEC3"
		},
		{
			"bufferView":25,
			"componentType":5126,
			"count":508,
			"type":"VEC3"
		},
		{
			"bufferView":26,
			"componentType":5126,
			"count":508,
			"type":"VEC2"
		}
	],
	"bufferViews":[
		{
			"buffer":0,
			"byteLength":37368,
			"byteOffset":0,
			"target":34962
		},
		{
			"buffer":0,
			"byteLength":37368,
			"byteOffset":37368,
			"target":34962
		},
		{
			"buffer":0,
			"byteLength":24912,
			"byteOffset":74736,
			"target":34962
		},
		{
			"buffer":0,
			"byteLength":26280,
			"byteOffset":99648,
			"target":34963
		},
		{
			"buffer":0,
			"byteLength":68280,
			"byteOffset":125928,
			"target":34962
		},
		{
			"buffer":0,
			"byteLength":68280,
			"byteOffset":194208,
			"target":34962
		},
		{
			"buffer":0,
			"byteLength":58032,
			"byteOffset":262488,
			"target":34963
		},
		{
			"buffer":0,
			"byteLength":6096,
			"byteOffset":320520,
			"target":34962
		},
		{
			"buffer":0,
			"byteLength":6096,
			"byteOffset":326616,
			"target":34962
		},
		{
			"buffer":0,
			"byteLength":4064,
			"byteOffset":332712,
			"target":34962
		},
		{
			"buffer":0,
			"byteLength":2016,
			"byteOffset":336776,
			"target":34963
		},
		{
			"buffer":0,
			"byteLength":15072,
			"byteOffset":338792,
			"target":34962
		},
		{
			"buffer":0,
			"byteLength":15072,
			"byteOffset":353864,
			"target":34962
		},
		{
			"buffer":0,
			"byteLength":10048,
			"byteOffset":368936,
			"target":34962
		},
		{
			"buffer":0,
			"byteLength":8808,
			"byteOffset":378984,
			"target":34963
		},
		{
			"buffer":0,
			"byteLength":15072,
			"byteOffset":387792,
			"target":34962
		},
		{
			"buffer":0,
			"byteLength":15072,
			"byteOffset":402864,
			"target":34962
		},
		{
			"buffer":0,
			"byteLength":10048,
			"byteOffset":417936,
			"target":34962
		},
		{
			"buffer":0,
			"byteLength":83976,
			"byteOffset":427984,
			"target":34962
		},
		{
			"buffer":0,
			"byteLength":83976,
			"byteOffset":511960,
			"target":34962
		},
		{
			"buffer":0,
			"byteLength":74760,
			"byteOffset":595936,
			"target":34963
		},
		{
			"buffer":0,
			"byteLength":37368,
			"byteOffset":670696,
			"target":34962
		},
		{
			"buffer":0,
			"byteLength":37368,
			"byteOffset":708064,
			"target":34962
		},
		{
			"buffer":0,
			"byteLength":24912,
			"byteOffset":745432,
			"target":34962
		},
		{
			"buffer":0,
			"byteLength":6096,
			"byteOffset":770344,
			"target":34962
		},
		{
			"buffer":0,
			"byteLength":6096,
			"byteOffset":776440,
			"target":34962
		},
		{
			"buffer":0,
			"byteLength":4064,
			"byteOffset":782536,
			"target":34962
		}
	],
	"buffers":[
		{
			"byteLength":786600,
			"uri":"PR-M36stahlhelm.bin"
		}
	]
}
